<svg id="Predeterminada" xmlns="http://www.w3.org/2000/svg" viewBox="0 0 429.15 698.65"><defs><style>.cls-1{fill:#20aeef;}.cls-2{fill:#f16b8d;}.cls-3{fill:#e83f7a;}.cls-4{fill:#ffffff;}</style></defs><path class="cls-1" d="M190.22,351.24a124.45,124.45,0,0,0,103.36-15,128.06,128.06,0,0,0,27-190.23,125.07,125.07,0,0,0-95-43.88,27.05,27.05,0,0,0-19.22,8,27.72,27.72,0,0,0,0,38.88,27,27,0,0,0,19.22,8,71.45,71.45,0,0,1,68.44,51.84,72.57,72.57,0,0,1-29.88,81,70.64,70.64,0,0,1-58.66,8.53,26.94,26.94,0,0,0-20.68,2.25,27.44,27.44,0,0,0-13,16.39A27.76,27.76,0,0,0,174,338,27.25,27.25,0,0,0,190.22,351.24Z" transform="translate(-11.63 -12.74)"/><path class="cls-1" d="M11.63,229.24A218.24,218.24,0,0,0,47.69,349.52a214.53,214.53,0,0,0,96,79.74A212.21,212.21,0,0,0,377,382.33a217.89,217.89,0,0,0-32.43-333.1A212.14,212.14,0,0,0,225.63,12.74a27.05,27.05,0,0,0-19.22,8,27.72,27.72,0,0,0,0,38.88,27,27,0,0,0,19.22,8,158.28,158.28,0,0,1,88.69,27.22,161,161,0,0,1,58.8,72.49,162.89,162.89,0,0,1-34.6,176A158.64,158.64,0,0,1,92.88,319,162.77,162.77,0,0,1,66,229.24a27.63,27.63,0,0,0-8-19.44,27,27,0,0,0-38.43,0A27.63,27.63,0,0,0,11.63,229.24Z" transform="translate(-11.63 -12.74)"/><path class="cls-2" d="M225.63,260.17a30.41,30.41,0,0,0,21.62-9.06,31.2,31.2,0,0,0,0-43.74,30.41,30.41,0,0,0-21.62-9.06h-3.4A60.78,60.78,0,0,1,179,180.19a62.2,62.2,0,0,1-17.91-43.74V50.54a31.09,31.09,0,0,0-9-21.87,30.31,30.31,0,0,0-43.23,0,31.13,31.13,0,0,0-9,21.87v96.22A114.09,114.09,0,0,0,132.78,227,111.43,111.43,0,0,0,212,260.17Z" transform="translate(-11.63 -12.74)"/><path class="cls-3" d="M69.44,547.72Q64,542.18,64,532.18V456H76.46v75.14q0,5.6,2.66,8.58c1.78,2,4.44,3,8,3a14.57,14.57,0,0,0,6.11-1.3l.65,10.27a26,26,0,0,1-9,1.56Q74.89,553.24,69.44,547.72Z" transform="translate(-11.63 -12.74)"/><path class="cls-3" d="M115.46,548.69a33,33,0,0,1-12.81-12.54,38,38,0,0,1,0-36.27,32.58,32.58,0,0,1,12.81-12.48,37.79,37.79,0,0,1,18.46-4.49,37.41,37.41,0,0,1,18.39,4.49,32.59,32.59,0,0,1,12.74,12.48,37.9,37.9,0,0,1,0,36.27,33,33,0,0,1-12.74,12.54,36.91,36.91,0,0,1-18.39,4.55A37.28,37.28,0,0,1,115.46,548.69Zm30.35-9.42a21.66,21.66,0,0,0,8.26-8.58,28.36,28.36,0,0,0,0-25.35,21.19,21.19,0,0,0-8.26-8.52,25.16,25.16,0,0,0-23.79,0,21.59,21.59,0,0,0-8.32,8.52,27.86,27.86,0,0,0,0,25.35,22.08,22.08,0,0,0,8.32,8.58,24.72,24.72,0,0,0,23.79,0Z" transform="translate(-11.63 -12.74)"/><path class="cls-3" d="M252.87,483.56V543.1q0,18.07-9,26.72t-26.78,8.64a64.27,64.27,0,0,1-18.59-2.66,36.85,36.85,0,0,1-14.3-7.61l6-9.62a35.41,35.41,0,0,0,11.89,6.57,45.32,45.32,0,0,0,14.63,2.4q12.09,0,17.87-5.72t5.79-17.42v-5.46a27.64,27.64,0,0,1-10.86,8,36.28,36.28,0,0,1-14,2.66,37.75,37.75,0,0,1-17.88-4.22,31.42,31.42,0,0,1-12.54-11.83,35.37,35.37,0,0,1,0-34.71,31,31,0,0,1,12.54-11.77,38.19,38.19,0,0,1,17.88-4.16,36.59,36.59,0,0,1,14.49,2.86,27,27,0,0,1,11,8.45V483.56Zm-23.73,52.26a21.06,21.06,0,0,0,8.45-8,22.31,22.31,0,0,0,3.06-11.64q0-10-6.63-16.18t-17-6.18q-10.53,0-17.16,6.18t-6.63,16.18a22.39,22.39,0,0,0,3.05,11.64,21.19,21.19,0,0,0,8.45,8A25.8,25.8,0,0,0,217,538.68,25.49,25.49,0,0,0,229.14,535.82Z" transform="translate(-11.63 -12.74)"/><path class="cls-3" d="M298.24,486a34.89,34.89,0,0,1,15.47-3.12V495a26.06,26.06,0,0,0-2.86-.13q-10.14,0-15.93,6.05t-5.78,17.22v34.32H276.66v-68.9h12v11.57A21.28,21.28,0,0,1,298.24,486Z" transform="translate(-11.63 -12.74)"/><path class="cls-3" d="M339.45,548.69a33,33,0,0,1-12.81-12.54,38,38,0,0,1,0-36.27,32.58,32.58,0,0,1,12.81-12.48,40,40,0,0,1,36.85,0A32.66,32.66,0,0,1,389,499.88a37.9,37.9,0,0,1,0,36.27,33.08,33.08,0,0,1-12.74,12.54,39.58,39.58,0,0,1-36.85,0Zm30.35-9.42a21.66,21.66,0,0,0,8.26-8.58,28.36,28.36,0,0,0,0-25.35,21.19,21.19,0,0,0-8.26-8.52,25.16,25.16,0,0,0-23.79,0,21.59,21.59,0,0,0-8.32,8.52,27.86,27.86,0,0,0,0,25.35,22.08,22.08,0,0,0,8.32,8.58,24.72,24.72,0,0,0,23.79,0Z" transform="translate(-11.63 -12.74)"/><path class="cls-4" d="M87.31,588.93v96.46h-12V674.47a26.89,26.89,0,0,1-10.53,8.71,32.49,32.49,0,0,1-14,3,36.2,36.2,0,0,1-17.94-4.42,31.65,31.65,0,0,1-12.41-12.41,39.8,39.8,0,0,1,0-36.73,31.89,31.89,0,0,1,12.41-12.35,36.3,36.3,0,0,1,17.94-4.42,33,33,0,0,1,13.66,2.8,26.47,26.47,0,0,1,10.39,8.25v-38ZM63.65,672.2A21.5,21.5,0,0,0,72,663.62a28.45,28.45,0,0,0,0-25.35,21,21,0,0,0-8.33-8.52,23.77,23.77,0,0,0-11.83-3,23.67,23.67,0,0,0-11.89,3,21.59,21.59,0,0,0-8.32,8.52,27.78,27.78,0,0,0,0,25.35,22.08,22.08,0,0,0,8.32,8.58,23.31,23.31,0,0,0,11.89,3A23.4,23.4,0,0,0,63.65,672.2Z" transform="translate(-11.63 -12.74)"/><path class="cls-4" d="M111.17,600.89a7.64,7.64,0,0,1-2.41-5.72,7.85,7.85,0,0,1,2.41-5.78,8.17,8.17,0,0,1,6-2.41,8.46,8.46,0,0,1,6.05,2.28,7.46,7.46,0,0,1,2.4,5.65,8.07,8.07,0,0,1-2.4,5.92,8.22,8.22,0,0,1-6.05,2.4A8.31,8.31,0,0,1,111.17,600.89Zm-.2,15.6h12.48v68.9H111Z" transform="translate(-11.63 -12.74)"/><path class="cls-4" d="M213.15,616.49V676q0,18.08-9,26.72t-26.78,8.64a64.32,64.32,0,0,1-18.59-2.66,36.92,36.92,0,0,1-14.3-7.61l6-9.62a35.46,35.46,0,0,0,11.9,6.57,45.26,45.26,0,0,0,14.62,2.4q12.09,0,17.88-5.72t5.78-17.42v-5.46a27.54,27.54,0,0,1-10.85,8,36.3,36.3,0,0,1-14,2.66A37.73,37.73,0,0,1,158,678.31a31.51,31.51,0,0,1-12.55-11.83,35.37,35.37,0,0,1,0-34.71A31.09,31.09,0,0,1,158,620a38.18,38.18,0,0,1,17.87-4.16,36.67,36.67,0,0,1,14.5,2.86,27,27,0,0,1,11,8.45V616.49Zm-23.72,52.26a21.19,21.19,0,0,0,8.45-8,22.39,22.39,0,0,0,3.05-11.64q0-10-6.63-16.18t-17-6.18q-10.53,0-17.16,6.18t-6.63,16.18a22.31,22.31,0,0,0,3.06,11.64,21.06,21.06,0,0,0,8.45,8,27.54,27.54,0,0,0,24.44,0Z" transform="translate(-11.63 -12.74)"/><path class="cls-4" d="M237.14,600.89a7.64,7.64,0,0,1-2.41-5.72,7.85,7.85,0,0,1,2.41-5.78,8.15,8.15,0,0,1,6-2.41,8.46,8.46,0,0,1,6,2.28,7.46,7.46,0,0,1,2.4,5.65,8.07,8.07,0,0,1-2.4,5.92,8.89,8.89,0,0,1-12.09.06Zm-.2,15.6h12.48v68.9H236.94Z" transform="translate(-11.63 -12.74)"/><path class="cls-4" d="M309.48,681.36a18.7,18.7,0,0,1-6.76,3.58,28.36,28.36,0,0,1-8.32,1.23q-10.41,0-16.12-5.59t-5.72-16V601.41H285v15.08H304.8v10.27H285v37.31q0,5.59,2.79,8.58c1.87,2,4.53,3,8,3a15,15,0,0,0,9.75-3.25Z" transform="translate(-11.63 -12.74)"/><path class="cls-4" d="M387.22,616.49v68.9h-12V674.47a27,27,0,0,1-10.53,8.71,32.55,32.55,0,0,1-14,3,36.17,36.17,0,0,1-17.94-4.42,31.61,31.61,0,0,1-12.42-12.41,39.88,39.88,0,0,1,0-36.73,31.85,31.85,0,0,1,12.42-12.35,36.28,36.28,0,0,1,17.94-4.42,32.91,32.91,0,0,1,13.65,2.8,26.5,26.5,0,0,1,10.4,8.25v-10.4ZM363.56,672.2a21.54,21.54,0,0,0,8.32-8.58,28.36,28.36,0,0,0,0-25.35,21.07,21.07,0,0,0-8.32-8.52,25,25,0,0,0-23.73,0,21.59,21.59,0,0,0-8.32,8.52,27.86,27.86,0,0,0,0,25.35,22.08,22.08,0,0,0,8.32,8.58,24.6,24.6,0,0,0,23.73,0Z" transform="translate(-11.63 -12.74)"/><path class="cls-4" d="M416.34,680.65q-5.46-5.53-5.46-15.54V588.93h12.48v75.14q0,5.59,2.66,8.58c1.78,2,4.44,3,8,3a14.57,14.57,0,0,0,6.11-1.3l.65,10.27a26,26,0,0,1-9,1.56Q421.79,686.17,416.34,680.65Z" transform="translate(-11.63 -12.74)"/></svg>
