<?xml version="1.0" encoding="utf-8"?>
<!-- Generator: Adobe Illustrator 25.4.1, SVG Export Plug-In . SVG Version: 6.00 Build 0)  -->
<svg version="1.1" id="katman_1" xmlns="http://www.w3.org/2000/svg" xmlns:xlink="http://www.w3.org/1999/xlink" x="0px" y="0px"
	 viewBox="0 0 131.2 35" style="enable-background:new 0 0 131.2 35;" xml:space="preserve">
<style type="text/css">
	.st0{fill:#20AEEF;}
	.st1{fill:#F16B8D;}
	.st2{fill:#E83F7A;}
	.st3{fill:#020202;}
</style>
<g>
	<path class="st0" d="M14.3,27.3c2.8,0.8,5.8,0.4,8.3-1.2s4.1-4.2,4.5-7.1s-0.4-5.9-2.4-8.1c-1.9-2.2-4.7-3.5-7.6-3.5
		c-0.6,0-1.1,0.2-1.5,0.6C15.2,8.4,15,9,15,9.6s0.2,1.1,0.6,1.6c0.4,0.4,1,0.6,1.5,0.6c2.5,0,4.8,1.7,5.5,4.2
		c0.7,2.5-0.3,5.1-2.4,6.5c-1.4,0.9-3.1,1.2-4.7,0.7c-0.6-0.2-1.2-0.1-1.7,0.2c-0.5,0.3-0.9,0.8-1,1.3c-0.2,0.6-0.1,1.2,0.2,1.7
		C13.3,26.7,13.8,27.1,14.3,27.3z"/>
	<path class="st0" d="M0,17.5c0,3.4,1,6.8,2.9,9.7s4.6,5.1,7.7,6.4c3.1,1.3,6.6,1.7,9.9,1s6.4-2.3,8.8-4.8s4-5.5,4.7-8.9
		s0.3-6.9-1-10C31.8,7.7,29.6,5,26.7,3c-2.8-1.9-6.1-2.9-9.5-2.9c-0.6,0-1.1,0.2-1.5,0.6s-0.6,1-0.6,1.6s0.2,1.1,0.6,1.6
		c0.4,0.4,1,0.6,1.5,0.6c2.5,0,5,0.8,7.1,2.2s3.8,3.4,4.7,5.8c1,2.4,1.2,5,0.7,7.5s-1.7,4.8-3.5,6.6c-1.8,1.8-4.1,3-6.6,3.5
		s-5.1,0.2-7.4-0.7c-2.3-1-4.3-2.6-5.8-4.8C5,22.5,4.2,20,4.2,17.4c0-0.6-0.2-1.1-0.6-1.6c-0.4-0.4-1-0.6-1.5-0.6
		c-0.6,0-1.1,0.2-1.5,0.6C0.2,16.4,0,16.9,0,17.5z"/>
	<path class="st1" d="M17.2,20c0.7,0,1.3-0.3,1.7-0.7c0.5-0.5,0.7-1.1,0.7-1.8c0-0.7-0.3-1.3-0.7-1.8c-0.5-0.5-1.1-0.7-1.7-0.7h-0.3
		c-1.3,0-2.6-0.5-3.5-1.5C12.5,12.6,12,11.3,12,10V3.2c0-0.7-0.3-1.3-0.7-1.8c-0.5-0.5-1.1-0.7-1.7-0.7S8.3,0.9,7.8,1.4
		S7.1,2.5,7.1,3.2v7.7c0,2.4,0.9,4.7,2.6,6.4c1.7,1.7,4,2.7,6.4,2.7H17.2z"/>
</g>
<g>
	<path class="st2" d="M43.6,13.9c-0.6-0.6-0.8-1.4-0.8-2.4V-0.1h1.9v11.5c0,0.6,0.1,1,0.4,1.3c0.3,0.3,0.7,0.5,1.2,0.5
		c0.3,0,0.6-0.1,0.9-0.2l0.1,1.6c-0.4,0.2-0.9,0.2-1.4,0.2C45,14.8,44.2,14.5,43.6,13.9z"/>
	<path class="st2" d="M50.7,14.1c-0.8-0.5-1.5-1.1-2-1.9c-0.5-0.8-0.7-1.7-0.7-2.8c0-1,0.2-2,0.7-2.8s1.1-1.4,2-1.9
		C51.5,4.3,52.4,4,53.5,4c1,0,2,0.2,2.8,0.7s1.5,1.1,1.9,1.9c0.5,0.8,0.7,1.7,0.7,2.8c0,1-0.2,2-0.7,2.8s-1.1,1.5-1.9,1.9
		c-0.8,0.5-1.8,0.7-2.8,0.7C52.4,14.8,51.5,14.5,50.7,14.1z M55.3,12.6c0.5-0.3,1-0.7,1.3-1.3s0.5-1.2,0.5-1.9S56.9,8,56.6,7.5
		c-0.3-0.6-0.7-1-1.3-1.3c-0.5-0.3-1.1-0.5-1.8-0.5s-1.3,0.2-1.8,0.5s-1,0.7-1.3,1.3s-0.5,1.2-0.5,1.9s0.2,1.4,0.5,1.9
		c0.3,0.6,0.7,1,1.3,1.3c0.5,0.3,1.1,0.5,1.8,0.5S54.8,12.9,55.3,12.6z"/>
	<path class="st2" d="M71.7,4.1v9.1c0,1.8-0.5,3.2-1.4,4.1s-2.3,1.3-4.1,1.3c-1,0-1.9-0.1-2.8-0.4c-0.9-0.3-1.6-0.7-2.2-1.2l0.9-1.5
		c0.5,0.4,1.1,0.8,1.8,1s1.5,0.4,2.2,0.4c1.2,0,2.1-0.3,2.7-0.9c0.6-0.6,0.9-1.5,0.9-2.7v-0.8c-0.5,0.5-1,1-1.7,1.2
		c-0.7,0.3-1.4,0.4-2.1,0.4c-1,0-1.9-0.2-2.7-0.6c-0.8-0.4-1.5-1-1.9-1.8c-0.5-0.8-0.7-1.7-0.7-2.7s0.2-1.9,0.7-2.7s1.1-1.4,1.9-1.8
		C64,4.2,65,4,66,4c0.8,0,1.5,0.1,2.2,0.4s1.2,0.7,1.7,1.3V4.1H71.7z M68,12.1c0.5-0.3,1-0.7,1.3-1.2s0.5-1.1,0.5-1.8
		c0-1-0.3-1.8-1-2.5c-0.7-0.6-1.5-0.9-2.6-0.9S64.3,6,63.6,6.6c-0.7,0.6-1,1.5-1,2.5c0,0.7,0.2,1.3,0.5,1.8s0.7,0.9,1.3,1.2
		c0.5,0.3,1.2,0.4,1.9,0.4C66.9,12.5,67.5,12.4,68,12.1z"/>
	<path class="st2" d="M78.6,4.5C79.2,4.2,80,4,81,4v1.8c-0.1,0-0.3,0-0.4,0c-1,0-1.8,0.3-2.4,0.9s-0.9,1.5-0.9,2.6v5.2h-1.9V4.1h1.8
		v1.8C77.5,5.3,77.9,4.8,78.6,4.5z"/>
	<path class="st2" d="M84.9,14.1c-0.8-0.5-1.5-1.1-2-1.9c-0.5-0.8-0.7-1.7-0.7-2.8c0-1,0.2-2,0.7-2.8s1.1-1.4,2-1.9
		C85.7,4.3,86.7,4,87.7,4s2,0.2,2.8,0.7s1.5,1.1,1.9,1.9c0.5,0.8,0.7,1.7,0.7,2.8c0,1-0.2,2-0.7,2.8s-1.1,1.5-1.9,1.9
		c-0.8,0.5-1.8,0.7-2.8,0.7C86.7,14.8,85.7,14.5,84.9,14.1z M89.5,12.6c0.5-0.3,1-0.7,1.3-1.3s0.5-1.2,0.5-1.9S91.1,8,90.8,7.5
		c-0.3-0.6-0.7-1-1.3-1.3c-0.5-0.3-1.1-0.5-1.8-0.5s-1.3,0.2-1.8,0.5s-1,0.7-1.3,1.3s-0.5,1.2-0.5,1.9s0.2,1.4,0.5,1.9
		c0.3,0.6,0.7,1,1.3,1.3c0.5,0.3,1.1,0.5,1.8,0.5S89,12.9,89.5,12.6z"/>
</g>
<g>
	<path class="st3" d="M77.3,16.3V31h-1.8v-1.7c-0.4,0.6-1,1-1.6,1.3s-1.4,0.5-2.1,0.5c-1,0-1.9-0.2-2.7-0.7
		c-0.8-0.4-1.4-1.1-1.9-1.9s-0.7-1.8-0.7-2.8c0-1.1,0.2-2,0.7-2.8s1.1-1.4,1.9-1.9c0.8-0.4,1.7-0.7,2.7-0.7c0.8,0,1.4,0.1,2.1,0.4
		c0.6,0.3,1.2,0.7,1.6,1.3v-5.8h1.8V16.3z M73.6,29c0.5-0.3,1-0.7,1.3-1.3c0.3-0.6,0.5-1.2,0.5-1.9c0-0.7-0.2-1.4-0.5-1.9
		c-0.3-0.6-0.7-1-1.3-1.3c-0.5-0.3-1.1-0.5-1.8-0.5c-0.7,0-1.3,0.2-1.8,0.5s-1,0.7-1.3,1.3c-0.3,0.6-0.5,1.2-0.5,1.9
		c0,0.7,0.2,1.4,0.5,1.9c0.3,0.6,0.7,1,1.3,1.3c0.5,0.3,1.1,0.5,1.8,0.5S73.1,29.3,73.6,29z"/>
	<path class="st3" d="M80.9,18.1c-0.2-0.2-0.4-0.5-0.4-0.9c0-0.3,0.1-0.6,0.4-0.9c0.2-0.2,0.6-0.4,0.9-0.4c0.4,0,0.7,0.1,0.9,0.3
		c0.2,0.2,0.4,0.5,0.4,0.9S83,17.8,82.7,18c-0.2,0.2-0.6,0.4-0.9,0.4C81.5,18.5,81.2,18.4,80.9,18.1z M80.9,20.5h1.9V31h-1.9V20.5z"
		/>
	<path class="st3" d="M96.5,20.5v9.1c0,1.8-0.5,3.2-1.4,4.1C94.2,34.6,92.8,35,91,35c-1,0-1.9-0.1-2.8-0.4c-0.9-0.3-1.6-0.7-2.2-1.2
		l0.9-1.5c0.5,0.4,1.1,0.8,1.8,1c0.7,0.2,1.5,0.4,2.2,0.4c1.2,0,2.1-0.3,2.7-0.9c0.6-0.6,0.9-1.5,0.9-2.7V29c-0.5,0.5-1,1-1.7,1.2
		c-0.7,0.3-1.4,0.4-2.1,0.4c-1,0-1.9-0.2-2.7-0.6c-0.8-0.4-1.5-1-1.9-1.8c-0.5-0.8-0.7-1.7-0.7-2.7s0.2-1.9,0.7-2.7
		c0.5-0.8,1.1-1.4,1.9-1.8s1.7-0.6,2.7-0.6c0.8,0,1.5,0.1,2.2,0.4s1.2,0.7,1.7,1.3v-1.6C94.6,20.5,96.5,20.5,96.5,20.5z M92.9,28.5
		c0.5-0.3,1-0.7,1.3-1.2s0.5-1.1,0.5-1.8c0-1-0.3-1.8-1-2.5c-0.7-0.6-1.5-0.9-2.6-0.9s-1.9,0.3-2.6,0.9s-1,1.5-1,2.5
		c0,0.7,0.2,1.3,0.5,1.8s0.7,0.9,1.3,1.2c0.5,0.3,1.2,0.4,1.9,0.4C91.7,28.9,92.3,28.8,92.9,28.5z"/>
	<path class="st3" d="M100.2,18.1c-0.2-0.2-0.4-0.5-0.4-0.9c0-0.3,0.1-0.6,0.4-0.9c0.2-0.2,0.6-0.4,0.9-0.4c0.4,0,0.7,0.1,0.9,0.3
		c0.2,0.2,0.4,0.5,0.4,0.9s-0.1,0.7-0.4,0.9c-0.2,0.2-0.6,0.4-0.9,0.4C100.7,18.5,100.4,18.4,100.2,18.1z M100.1,20.5h1.9V31h-1.9
		V20.5z"/>
	<path class="st3" d="M111.2,30.4c-0.3,0.2-0.6,0.4-1,0.5s-0.8,0.2-1.3,0.2c-1.1,0-1.9-0.3-2.5-0.9s-0.9-1.4-0.9-2.4v-9.7h1.9v2.3h3
		V22h-3v5.7c0,0.6,0.1,1,0.4,1.3s0.7,0.5,1.2,0.5c0.6,0,1.1-0.2,1.5-0.5L111.2,30.4z"/>
	<path class="st3" d="M123.1,20.5V31h-1.8v-1.7c-0.4,0.6-1,1-1.6,1.3s-1.4,0.5-2.1,0.5c-1,0-1.9-0.2-2.7-0.7
		c-0.8-0.4-1.4-1.1-1.9-1.9s-0.7-1.8-0.7-2.8c0-1.1,0.2-2,0.7-2.8s1.1-1.4,1.9-1.9c0.8-0.4,1.7-0.7,2.7-0.7c0.8,0,1.4,0.1,2.1,0.4
		c0.6,0.3,1.2,0.7,1.6,1.3v-1.6h1.8V20.5z M119.5,29c0.5-0.3,1-0.7,1.3-1.3c0.3-0.6,0.5-1.2,0.5-1.9c0-0.7-0.2-1.4-0.5-1.9
		c-0.3-0.6-0.7-1-1.3-1.3c-0.5-0.3-1.1-0.5-1.8-0.5c-0.7,0-1.3,0.2-1.8,0.5s-1,0.7-1.3,1.3c-0.3,0.6-0.5,1.2-0.5,1.9
		c0,0.7,0.2,1.4,0.5,1.9c0.3,0.6,0.7,1,1.3,1.3c0.5,0.3,1.1,0.5,1.8,0.5C118.3,29.5,118.9,29.3,119.5,29z"/>
	<path class="st3" d="M127.5,30.3c-0.6-0.6-0.8-1.4-0.8-2.4V16.3h1.9v11.5c0,0.6,0.1,1,0.4,1.3c0.3,0.3,0.7,0.5,1.2,0.5
		c0.3,0,0.6-0.1,0.9-0.2l0.1,1.6c-0.4,0.2-0.9,0.2-1.4,0.2C128.9,31.1,128.1,30.9,127.5,30.3z"/>
</g>
</svg>
