<?xml version="1.0" encoding="utf-8"?>
<!-- Generator: Adobe Illustrator 25.4.1, SVG Export Plug-In . SVG Version: 6.00 Build 0)  -->
<svg version="1.1" id="katman_1" xmlns="http://www.w3.org/2000/svg" xmlns:xlink="http://www.w3.org/1999/xlink" x="0px" y="0px"
	 viewBox="0 0 131.1 35" style="enable-background:new 0 0 131.1 35;" xml:space="preserve">
<style type="text/css">
	.st0{fill:#FFFFFF;}
</style>
<path class="st0" d="M14.2,27.3c2.8,0.8,5.8,0.4,8.3-1.2s4.1-4.2,4.5-7.1s-0.4-5.9-2.4-8.1C22.8,8.6,20,7.3,17,7.3
	c-0.6,0-1.1,0.2-1.5,0.6c-0.4,0.4-0.6,1-0.6,1.6s0.2,1.1,0.6,1.6c0.4,0.4,1,0.6,1.5,0.6c2.5,0,4.8,1.7,5.5,4.2s-0.3,5.1-2.4,6.5
	c-1.4,0.9-3.1,1.2-4.7,0.7c-0.6-0.2-1.2-0.1-1.7,0.2c-0.5,0.3-0.9,0.8-1,1.3c-0.2,0.6-0.1,1.2,0.2,1.7
	C13.2,26.8,13.6,27.2,14.2,27.3z"/>
<path class="st0" d="M-0.1,17.5c0,3.4,1,6.8,2.9,9.7s4.6,5.1,7.7,6.4c3.1,1.3,6.6,1.7,9.9,1s6.4-2.3,8.8-4.8s4-5.5,4.7-8.9
	s0.3-6.9-1-10c-1.3-3.2-3.5-5.9-6.3-7.8s-6.1-2.9-9.5-2.9c-0.6,0-1.1,0.2-1.5,0.6S15,1.8,15,2.4s0.2,1.1,0.6,1.6
	c0.4,0.4,1,0.6,1.5,0.6c2.5,0,5,0.8,7.1,2.2s3.8,3.4,4.7,5.8c1,2.4,1.2,5,0.7,7.5s-1.7,4.8-3.5,6.6c-1.8,1.8-4.1,3-6.6,3.5
	s-5.1,0.2-7.4-0.7c-2.3-1-4.3-2.6-5.8-4.8c-1.4-2.1-2.2-4.6-2.2-7.2C4.2,17,4,16.4,3.6,16c-0.4-0.4-1-0.6-1.5-0.6
	c-0.6,0-1.1,0.2-1.5,0.6C0.1,16.4-0.1,17-0.1,17.5z"/>
<path class="st0" d="M17,20c0.7,0,1.3-0.3,1.7-0.7c0.5-0.5,0.7-1.1,0.7-1.8s-0.3-1.3-0.7-1.8C18.2,15.2,17.6,15,17,15h-0.3
	c-1.3,0-2.6-0.5-3.5-1.5c-0.9-0.9-1.4-2.2-1.4-3.5V3.2c0-0.7-0.3-1.3-0.7-1.8c-0.4-0.4-1-0.7-1.7-0.7C8.8,0.7,8.1,1,7.7,1.4
	C7.2,1.9,7,2.5,7,3.2v7.7c0,2.4,0.9,4.7,2.6,6.4c1.7,1.7,4,2.7,6.4,2.7H17z"/>
<g>
	<path class="st0" d="M43.5,14c-0.6-0.6-0.8-1.4-0.8-2.4V0h1.9v11.5c0,0.6,0.1,1,0.4,1.3c0.3,0.3,0.7,0.5,1.2,0.5
		c0.3,0,0.6-0.1,0.9-0.2l0.1,1.6c-0.4,0.2-0.9,0.2-1.4,0.2C44.8,14.8,44.1,14.5,43.5,14z"/>
	<path class="st0" d="M50.5,14.1c-0.8-0.5-1.5-1.1-2-1.9c-0.5-0.8-0.7-1.7-0.7-2.8c0-1,0.2-2,0.7-2.8s1.1-1.4,2-1.9
		C51.3,4.2,52.3,4,53.3,4s2,0.2,2.8,0.7s1.5,1.1,1.9,1.9c0.5,0.8,0.7,1.7,0.7,2.8c0,1-0.2,2-0.7,2.8s-1.1,1.5-1.9,1.9
		c-0.8,0.5-1.8,0.7-2.8,0.7S51.4,14.6,50.5,14.1z M55.2,12.7c0.5-0.3,1-0.7,1.3-1.3S57,10.2,57,9.5s-0.2-1.4-0.5-1.9
		c-0.3-0.6-0.7-1-1.3-1.3c-0.5-0.3-1.1-0.5-1.8-0.5S52.1,6,51.6,6.3s-1,0.7-1.3,1.3s-0.5,1.2-0.5,1.9s0.2,1.4,0.5,1.9
		c0.3,0.6,0.7,1,1.3,1.3c0.5,0.3,1.1,0.5,1.8,0.5S54.6,13,55.2,12.7z"/>
	<path class="st0" d="M71.5,4.2v9.1c0,1.8-0.5,3.2-1.4,4.1s-2.3,1.3-4.1,1.3c-1,0-1.9-0.1-2.8-0.4c-0.9-0.3-1.6-0.7-2.2-1.2l0.9-1.5
		c0.5,0.4,1.1,0.8,1.8,1s1.5,0.4,2.2,0.4c1.2,0,2.1-0.3,2.7-0.9c0.6-0.6,0.9-1.5,0.9-2.7v-0.8c-0.5,0.5-1,1-1.7,1.2
		c-0.7,0.3-1.4,0.4-2.1,0.4c-1,0-1.9-0.2-2.7-0.6c-0.8-0.4-1.5-1-1.9-1.8c-0.5-0.8-0.7-1.7-0.7-2.7s0.2-1.9,0.7-2.7S62.2,5,63,4.6
		C63.8,4.2,64.7,4,65.7,4c0.8,0,1.5,0.1,2.2,0.4s1.2,0.7,1.7,1.3V4.2H71.5z M67.9,12.1c0.5-0.3,1-0.7,1.3-1.2s0.5-1.1,0.5-1.8
		c0-1-0.3-1.8-1-2.5C68,6,67.1,5.7,66,5.7S64.1,6,63.4,6.6c-0.7,0.6-1,1.5-1,2.5c0,0.7,0.2,1.3,0.5,1.8s0.7,0.9,1.3,1.2
		c0.5,0.3,1.2,0.4,1.9,0.4C66.7,12.6,67.4,12.4,67.9,12.1z"/>
	<path class="st0" d="M78.5,4.5C79.1,4.2,79.9,4,80.9,4v1.8c-0.1,0-0.3,0-0.4,0c-1,0-1.8,0.3-2.4,0.9s-0.9,1.5-0.9,2.6v5.2h-1.9V4.2
		H77V6C77.3,5.3,77.8,4.9,78.5,4.5z"/>
	<path class="st0" d="M84.8,14.1c-0.8-0.5-1.5-1.1-2-1.9c-0.5-0.8-0.7-1.7-0.7-2.8c0-1,0.2-2,0.7-2.8s1.1-1.4,2-1.9
		C85.6,4.2,86.6,4,87.6,4s2,0.2,2.8,0.7s1.5,1.1,1.9,1.9C92.8,7.5,93,8.4,93,9.4s-0.2,2-0.7,2.8s-1.1,1.5-1.9,1.9
		c-0.8,0.5-1.8,0.7-2.8,0.7C86.5,14.8,85.6,14.6,84.8,14.1z M89.4,12.7c0.5-0.3,1-0.7,1.3-1.3s0.5-1.2,0.5-1.9S91,8.1,90.7,7.6
		c-0.3-0.6-0.7-1-1.3-1.3c-0.5-0.3-1.1-0.5-1.8-0.5S86.3,6,85.8,6.3s-1,0.7-1.3,1.3C84.2,8.1,84,8.7,84,9.4s0.2,1.4,0.5,1.9
		c0.3,0.6,0.7,1,1.3,1.3c0.5,0.3,1.1,0.5,1.8,0.5S88.9,13,89.4,12.7z"/>
</g>
<g>
	<path class="st0" d="M77.1,16.3V31h-1.8v-1.7c-0.4,0.6-1,1-1.6,1.3s-1.4,0.5-2.1,0.5c-1,0-1.9-0.2-2.7-0.7
		c-0.8-0.4-1.4-1.1-1.9-1.9s-0.7-1.8-0.7-2.8c0-1.1,0.2-2,0.7-2.8s1.1-1.4,1.9-1.9c0.8-0.4,1.7-0.7,2.7-0.7c0.8,0,1.4,0.1,2.1,0.4
		c0.6,0.3,1.2,0.7,1.6,1.3v-5.8h1.8V16.3z M73.5,29.1c0.5-0.3,1-0.7,1.3-1.3c0.3-0.6,0.5-1.2,0.5-1.9c0-0.7-0.2-1.4-0.5-1.9
		c-0.3-0.6-0.7-1-1.3-1.3c-0.5-0.3-1.1-0.5-1.8-0.5c-0.7,0-1.3,0.2-1.8,0.5s-1,0.7-1.3,1.3c-0.3,0.6-0.5,1.2-0.5,1.9
		c0,0.7,0.2,1.4,0.5,1.9c0.3,0.6,0.7,1,1.3,1.3c0.5,0.3,1.1,0.5,1.8,0.5C72.4,29.5,73,29.4,73.5,29.1z"/>
	<path class="st0" d="M80.8,18.2c-0.2-0.2-0.4-0.5-0.4-0.9c0-0.3,0.1-0.6,0.4-0.9c0.2-0.2,0.6-0.4,0.9-0.4c0.4,0,0.7,0.1,0.9,0.3
		c0.2,0.2,0.4,0.5,0.4,0.9s-0.1,0.7-0.4,0.9c-0.2,0.2-0.6,0.4-0.9,0.4C81.3,18.5,81,18.4,80.8,18.2z M80.7,20.5h1.9V31h-1.9V20.5z"
		/>
	<path class="st0" d="M96.4,20.5v9.1c0,1.8-0.5,3.2-1.4,4.1S92.7,35,90.9,35c-1,0-1.9-0.1-2.8-0.4c-0.9-0.3-1.6-0.7-2.2-1.2l0.9-1.5
		c0.5,0.4,1.1,0.8,1.8,1c0.7,0.2,1.5,0.4,2.2,0.4c1.2,0,2.1-0.3,2.7-0.9c0.6-0.6,0.9-1.5,0.9-2.7V29c-0.5,0.5-1,1-1.7,1.2
		c-0.7,0.3-1.4,0.4-2.1,0.4c-1,0-1.9-0.2-2.7-0.6c-0.8-0.4-1.5-1-1.9-1.8c-0.5-0.8-0.7-1.7-0.7-2.7s0.2-1.9,0.7-2.7
		c0.5-0.8,1.1-1.4,1.9-1.8s1.7-0.6,2.7-0.6c0.8,0,1.5,0.1,2.2,0.4s1.2,0.7,1.7,1.3v-1.6C94.5,20.5,96.4,20.5,96.4,20.5z M92.7,28.5
		c0.5-0.3,1-0.7,1.3-1.2s0.5-1.1,0.5-1.8c0-1-0.3-1.8-1-2.5c-0.7-0.6-1.5-0.9-2.6-0.9S89,22.4,88.3,23s-1,1.5-1,2.5
		c0,0.7,0.2,1.3,0.5,1.8s0.7,0.9,1.3,1.2c0.5,0.3,1.2,0.4,1.9,0.4C91.6,29,92.2,28.8,92.7,28.5z"/>
	<path class="st0" d="M100,18.2c-0.2-0.2-0.4-0.5-0.4-0.9c0-0.3,0.1-0.6,0.4-0.9c0.2-0.2,0.6-0.4,0.9-0.4c0.4,0,0.7,0.1,0.9,0.3
		c0.2,0.2,0.4,0.5,0.4,0.9s-0.1,0.7-0.4,0.9c-0.2,0.2-0.6,0.4-0.9,0.4S100.3,18.4,100,18.2z M100,20.5h1.9V31H100V20.5z"/>
	<path class="st0" d="M111.1,30.5c-0.3,0.2-0.6,0.4-1,0.5s-0.8,0.2-1.3,0.2c-1.1,0-1.9-0.3-2.5-0.9s-0.9-1.4-0.9-2.4v-9.7h1.9v2.3h3
		v1.6h-3v5.7c0,0.6,0.1,1,0.4,1.3s0.7,0.5,1.2,0.5c0.6,0,1.1-0.2,1.5-0.5L111.1,30.5z"/>
	<path class="st0" d="M122.9,20.5V31h-1.8v-1.7c-0.4,0.6-1,1-1.6,1.3s-1.4,0.5-2.1,0.5c-1,0-1.9-0.2-2.7-0.7
		c-0.8-0.4-1.4-1.1-1.9-1.9s-0.7-1.8-0.7-2.8c0-1.1,0.2-2,0.7-2.8s1.1-1.4,1.9-1.9c0.8-0.4,1.7-0.7,2.7-0.7c0.8,0,1.4,0.1,2.1,0.4
		c0.6,0.3,1.2,0.7,1.6,1.3v-1.6h1.8V20.5z M119.3,29.1c0.5-0.3,1-0.7,1.3-1.3c0.3-0.6,0.5-1.2,0.5-1.9c0-0.7-0.2-1.4-0.5-1.9
		c-0.3-0.6-0.7-1-1.3-1.3c-0.5-0.3-1.1-0.5-1.8-0.5c-0.7,0-1.3,0.2-1.8,0.5s-1,0.7-1.3,1.3c-0.3,0.6-0.5,1.2-0.5,1.9
		c0,0.7,0.2,1.4,0.5,1.9c0.3,0.6,0.7,1,1.3,1.3c0.5,0.3,1.1,0.5,1.8,0.5C118.2,29.5,118.8,29.4,119.3,29.1z"/>
	<path class="st0" d="M127.4,30.3c-0.6-0.6-0.8-1.4-0.8-2.4V16.3h1.9v11.5c0,0.6,0.1,1,0.4,1.3c0.3,0.3,0.7,0.5,1.2,0.5
		c0.3,0,0.6-0.1,0.9-0.2l0.1,1.6c-0.4,0.2-0.9,0.2-1.4,0.2C128.7,31.2,128,30.9,127.4,30.3z"/>
</g>
</svg>
